<svg xmlns="http://www.w3.org/2000/svg" viewBox="0 0 32 32" role="img" aria-label="MuhBianco">
  <rect width="32" height="32" rx="7" fill="#0f4a4a"/>
  <path fill="#f4f7f9" d="M23.59 21.58 L17.58 21.58 L17.58 20.97 C17.76 20.96 17.97 20.93 18.23 20.9 C18.49 20.86 18.66 20.82 18.76 20.78 C18.95 20.7 19.09 20.59 19.17 20.46 C19.26 20.32 19.3 20.15 19.3 19.94 L19.3 11.66 L15.48 21.4 L14.5 21.4 C14.45 21.23 14.34 20.89 14.15 20.38 C13.97 19.87 13.82 19.46 13.7 19.15 L10.9 11.54 L10.9 18.28 C10.9 18.92 10.94 19.42 11.03 19.75 C11.11 20.09 11.25 20.33 11.45 20.49 C11.58 20.6 11.81 20.7 12.14 20.8 C12.48 20.9 12.72 20.96 12.85 20.97 L12.85 21.58 L8.09 21.58 L8.09 20.97 C8.22 20.96 8.43 20.92 8.72 20.87 C9.02 20.81 9.26 20.72 9.45 20.58 C9.65 20.44 9.79 20.19 9.87 19.85 C9.94 19.5 9.98 19.01 9.98 18.36 L9.98 12.87 C9.98 12.54 9.93 12.26 9.85 12.04 C9.77 11.82 9.64 11.64 9.48 11.51 C9.27 11.35 9.05 11.25 8.84 11.2 C8.62 11.15 8.4 11.12 8.17 11.11 L8.17 10.5 L13.28 10.5 L16.01 17.8 L18.32 11.87 C18.39 11.65 18.47 11.39 18.54 11.09 C18.62 10.79 18.65 10.59 18.66 10.5 L23.57 10.5 L23.57 11.11 C23.4 11.12 23.23 11.14 23.05 11.17 C22.86 11.2 22.69 11.24 22.52 11.29 C22.32 11.36 22.19 11.47 22.12 11.61 C22.06 11.76 22.02 11.92 22.02 12.1 L22.02 19.95 C22.02 20.14 22.06 20.3 22.12 20.42 C22.19 20.55 22.32 20.66 22.52 20.76 C22.63 20.8 22.8 20.85 23.04 20.89 C23.27 20.93 23.46 20.96 23.59 20.97 Z"/>
  <circle cx="24.5" cy="24.5" r="2.2" fill="#e24e3b"/>
</svg>
